<svg width="68" height="68" viewBox="0 0 68 68" fill="none" xmlns="http://www.w3.org/2000/svg">
<circle cx="34" cy="34" r="34" fill="#D9D9D9"/>
<path d="M53 51.6087H15C13.8954 51.6087 13 50.7133 13 49.6087V27.1304C13 26.0259 13.8954 25.1304 15 25.1304H21.0435C22.148 25.1304 23.0435 24.235 23.0435 23.1304V18C23.0435 16.8954 23.9389 16 25.0435 16H42.9565C44.0611 16 44.9565 16.8954 44.9565 18V23.1304C44.9565 24.235 45.852 25.1304 46.9565 25.1304H53C54.1046 25.1304 55 26.0259 55 27.1304V49.6087C55 50.7133 54.1046 51.6087 53 51.6087Z" stroke="white" stroke-width="2"/>
<path d="M44.0433 36.544C44.0433 41.8387 39.5466 46.1309 33.9998 46.1309C28.4529 46.1309 23.9563 41.8387 23.9563 36.544C23.9563 31.2493 28.4529 26.957 33.9998 26.957C39.5466 26.957 44.0433 31.2493 44.0433 36.544ZM25.7707 36.544C25.7707 40.8822 29.455 44.399 33.9998 44.399C38.5446 44.399 42.2289 40.8822 42.2289 36.544C42.2289 32.2058 38.5446 28.689 33.9998 28.689C29.455 28.689 25.7707 32.2058 25.7707 36.544Z" fill="white"/>
<path d="M38.5652 20.5654H39.9348H41.3043" stroke="white" stroke-width="3" stroke-linecap="round"/>
<path d="M28.3479 33.9632V33.9632C28.7399 32.7348 29.6769 31.756 30.887 31.3107L31.1537 31.2126" stroke="white" stroke-linecap="round"/>
</svg>
