<svg width="52" height="53" viewBox="0 0 52 53" fill="none" xmlns="http://www.w3.org/2000/svg">
<circle cx="26.5" cy="26.5" r="16" fill="#1F1F47" stroke="white"/>
<g filter="url(#filter0_f_5543_597)">
<ellipse cx="26.39" cy="26.5001" rx="11.55" ry="11.44" fill="#AE2BFF"/>
</g>
<g filter="url(#filter1_d_5543_597)">
<path d="M23.7656 37.2886C17.3008 37.8397 16.3374 32.0405 15.7924 25.6471C15.2474 19.2536 20.3007 16.6082 26.7655 16.0571C33.2302 15.506 36.016 16.8226 36.561 23.216C37.106 29.6095 30.2303 36.7376 23.7656 37.2886Z" fill="url(#paint0_linear_5543_597)" style="mix-blend-mode:color-dodge" shape-rendering="crispEdges"/>
</g>
<path d="M25.59 23.05V23.79H22.56V26.14H25.02V26.88H22.56V30.02H21.65V23.05H25.59ZM31.0791 23.05V23.79H29.1791V30.02H28.2691V23.79H26.3591V23.05H31.0791Z" fill="white"/>
<defs>
<filter id="filter0_f_5543_597" x="4.84" y="5.06006" width="43.1" height="42.8799" filterUnits="userSpaceOnUse" color-interpolation-filters="sRGB">
<feFlood flood-opacity="0" result="BackgroundImageFix"/>
<feBlend mode="normal" in="SourceGraphic" in2="BackgroundImageFix" result="shape"/>
<feGaussianBlur stdDeviation="5" result="effect1_foregroundBlur_5543_597"/>
</filter>
<filter id="filter1_d_5543_597" x="0.752129" y="0.943848" width="50.8393" height="51.3813" filterUnits="userSpaceOnUse" color-interpolation-filters="sRGB">
<feFlood flood-opacity="0" result="BackgroundImageFix"/>
<feColorMatrix in="SourceAlpha" type="matrix" values="0 0 0 0 0 0 0 0 0 0 0 0 0 0 0 0 0 0 127 0" result="hardAlpha"/>
<feOffset/>
<feGaussianBlur stdDeviation="7.5"/>
<feComposite in2="hardAlpha" operator="out"/>
<feColorMatrix type="matrix" values="0 0 0 0 0.360784 0 0 0 0 0.223529 0 0 0 0 0.945098 0 0 0 0.25 0"/>
<feBlend mode="normal" in2="BackgroundImageFix" result="effect1_dropShadow_5543_597"/>
<feBlend mode="normal" in="SourceGraphic" in2="effect1_dropShadow_5543_597" result="shape"/>
</filter>
<linearGradient id="paint0_linear_5543_597" x1="36.772" y1="25.692" x2="15.9476" y2="27.4671" gradientUnits="userSpaceOnUse">
<stop offset="0.317708" stop-color="#2FB8FF" stop-opacity="0.42"/>
<stop offset="1" stop-color="#5C9DF1"/>
</linearGradient>
</defs>
</svg>
