<svg width="23" height="19" viewBox="0 0 23 19" fill="none" xmlns="http://www.w3.org/2000/svg">
<path fill-rule="evenodd" clip-rule="evenodd" d="M11.1938 0.185181C10.4519 0.185181 9.85055 0.786573 9.85055 1.52843L9.85055 8.39856H1.12C0.501441 8.39856 0 8.9 0 9.51856C0 10.1371 0.50144 10.6386 1.12 10.6386H9.85055L9.85055 17.5086C9.85055 18.2505 10.4519 18.8518 11.1938 18.8518C11.9357 18.8518 12.5371 18.2505 12.5371 17.5086L12.5371 10.6386H21.2675C21.8861 10.6386 22.3875 10.1371 22.3875 9.51856C22.3875 8.9 21.8861 8.39856 21.2675 8.39856H12.5371L12.5371 1.52843C12.5371 0.786574 11.9357 0.185181 11.1938 0.185181Z" fill="white"/>
</svg>
