<svg width="18" height="19" viewBox="0 0 18 19" fill="none" xmlns="http://www.w3.org/2000/svg">
<path fill-rule="evenodd" clip-rule="evenodd" d="M9.00004 0.185303C8.40357 0.185303 7.92004 0.668835 7.92004 1.2653L7.92004 8.39868H1.12C0.501441 8.39868 0 8.90012 0 9.51868C0 10.1372 0.501441 10.6387 1.12 10.6387H7.92004L7.92004 17.772C7.92004 18.3684 8.40358 18.852 9.00004 18.852C9.59651 18.852 10.08 18.3684 10.08 17.772L10.08 10.6387H16.88C17.4986 10.6387 18 10.1372 18 9.51868C18 8.90012 17.4986 8.39868 16.88 8.39868H10.08L10.08 1.2653C10.08 0.668835 9.59651 0.185303 9.00004 0.185303Z" fill="white"/>
</svg>
