<svg width="18" height="19" viewBox="0 0 18 19" fill="none" xmlns="http://www.w3.org/2000/svg">
<path fill-rule="evenodd" clip-rule="evenodd" d="M9.00004 0.185181C8.40357 0.185181 7.92004 0.668713 7.92004 1.26518L7.92004 8.39856H1.12C0.501441 8.39856 0 8.9 0 9.51856C0 10.1371 0.501441 10.6386 1.12 10.6386H7.92004L7.92004 17.7718C7.92004 18.3683 8.40358 18.8518 9.00004 18.8518C9.59651 18.8518 10.08 18.3683 10.08 17.7718L10.08 10.6386H16.88C17.4986 10.6386 18 10.1371 18 9.51856C18 8.9 17.4986 8.39856 16.88 8.39856H10.08L10.08 1.26518C10.08 0.668713 9.59651 0.185181 9.00004 0.185181Z" fill="#3C43FF"/>
</svg>
