<svg width="25" height="16" 
viewBox="0 0 25 16" fill="none" xmlns="http://www.w3.org/2000/svg">
<path d="M12.641 15.1338C19.681 15.1338 24.5502 9.43848 24.5502 7.66309C24.5502 5.87891 19.6722 0.192383 12.641 0.192383C5.68884 0.192383 0.723022 5.87891 0.723022 7.66309C0.723022 9.43848 5.68884 15.1338 12.641 15.1338ZM12.641 12.5586C9.8988 12.5586 7.72791 10.335 7.71912 7.66309C7.71033 4.9209 9.8988 2.76758 12.641 2.76758C15.3568 2.76758 17.5541 4.9209 17.5541 7.66309C17.5541 10.335 15.3568 12.5586 12.641 12.5586ZM12.641 9.42969C13.6166 9.42969 14.4252 8.62988 14.4252 7.66309C14.4252 6.6875 13.6166 5.8877 12.641 5.8877C11.6566 5.8877 10.848 6.6875 10.848 7.66309C10.848 8.62988 11.6566 9.42969 12.641 9.42969Z" fill="#B0C1CE"/>
</svg>
