<svg width="28" height="28" viewBox="0 0 28 28" fill="none" xmlns="http://www.w3.org/2000/svg">
<path d="M20.6367 21.4883C20.9004 21.7607 21.3223 21.7783 21.5947 21.4883C21.876 21.1982 21.8584 20.8027 21.5947 20.5303L6.89941 5.84375C6.63574 5.58008 6.19629 5.58008 5.93262 5.84375C5.67773 6.09863 5.67773 6.54688 5.93262 6.80176L20.6367 21.4883ZM21.4717 18.9482C24.0381 17.252 25.7168 14.9229 25.7168 13.877C25.7168 12.0928 20.8389 6.40625 13.8076 6.40625C12.3135 6.40625 10.9072 6.66113 9.63281 7.08301L11.918 9.36816C12.498 9.12207 13.1309 8.98145 13.8076 8.98145C16.5234 8.98145 18.7207 11.1348 18.7207 13.877C18.7207 14.5449 18.5713 15.1865 18.3076 15.749L21.4717 18.9482ZM13.8076 21.3477C15.4336 21.3477 16.9453 21.0488 18.2725 20.5566L15.9697 18.2539C15.3193 18.5879 14.5811 18.7725 13.8076 18.7725C11.0654 18.7725 8.89453 16.5488 8.88574 13.877C8.88574 13.0859 9.07031 12.3389 9.39551 11.6797L6.38965 8.65625C3.62109 10.3877 1.88965 12.8223 1.88965 13.877C1.88965 15.6523 6.85547 21.3477 13.8076 21.3477ZM16.6025 13.6924C16.6025 12.1543 15.3633 10.9062 13.8076 10.9062C13.6934 10.9062 13.5791 10.915 13.4736 10.9238L16.585 14.0352C16.5938 13.9297 16.6025 13.8066 16.6025 13.6924ZM11.0039 13.6748C11.0039 15.2217 12.2783 16.4697 13.8164 16.4697C13.9395 16.4697 14.0537 16.4609 14.1768 16.4521L11.0215 13.2969C11.0127 13.4199 11.0039 13.5518 11.0039 13.6748Z" fill="#B0C1CE"/>
</svg>
