<svg width="20" height="20" viewBox="0 0 20 20" fill="none" xmlns="http://www.w3.org/2000/svg">
<path d="M13.2193 9.89543C13.2142 10.7436 12.8741 11.5554 12.2733 12.1538C11.6725 12.7522 10.8597 13.0887 10.012 13.0899C9.16427 13.0911 8.35045 12.757 7.74792 12.1604C7.14538 11.5637 6.80298 10.7529 6.79538 9.90476C6.79509 9.88816 6.79642 9.87157 6.79934 9.85522H0.0118727V9.86401L0.00626619 10.5091C0.00252433 10.9396 0.275367 11.3235 0.665007 11.5067C1.28013 11.7959 2.15395 12.2998 2.52791 12.9613C2.73535 13.6978 2.46805 14.6834 2.23484 15.3263C2.08906 15.7282 2.16458 16.1892 2.46673 16.4917L2.92652 16.9519L3.39586 17.4212C3.69378 17.7191 4.14635 17.7974 4.54448 17.6596C5.17275 17.442 6.13322 17.1932 6.86638 17.3762C7.55954 17.737 8.08526 18.6793 8.3805 19.3306C8.55849 19.7232 8.94046 20.0002 9.37153 20.0002H10.6587C11.0894 20.0002 11.4709 19.7241 11.6492 19.332C11.9685 18.6294 12.5573 17.5869 13.3353 17.302C14.0247 17.2029 14.8531 17.4242 15.4192 17.6237C15.8243 17.7664 16.2872 17.686 16.5872 17.3786L17.0503 16.9043L17.5099 16.4487C17.8127 16.1486 17.891 15.6897 17.7488 15.2879C17.53 14.6697 17.2819 13.735 17.4508 13.0114C17.4562 12.9989 17.461 12.9845 17.4664 12.9715C17.8322 12.2989 18.7161 11.7917 19.3364 11.5029C19.7254 11.3217 20 10.9411 20 10.5119V9.85522H13.2154C13.2188 9.86834 13.2201 9.8819 13.2193 9.89543Z" fill="white"/>
<path d="M17.4478 6.69922C17.434 6.66638 17.4184 6.63467 17.404 6.60185C17.3967 6.58487 17.3907 6.5673 17.3842 6.55032C17.2827 5.86264 17.4994 5.04039 17.6951 4.47984C17.8349 4.07929 17.7581 3.62255 17.4582 3.32247L16.9935 2.85751L16.5295 2.39289C16.2293 2.09234 15.7717 2.0154 15.3707 2.15555C14.803 2.35398 13.9675 2.57376 13.2755 2.46234C13.1685 2.41536 13.0605 2.40829 12.9513 2.36583C12.3631 1.96065 11.9129 1.19821 11.6452 0.648198C11.4599 0.267559 11.0831 0 10.6597 0H9.34195C8.91845 0 8.5416 0.267633 8.35637 0.648477C8.08649 1.2034 7.63114 1.9744 7.03568 2.37658C6.96326 2.40545 6.89084 2.41452 6.81955 2.44507C6.10263 2.60083 5.19321 2.35421 4.58787 2.13569C4.1863 1.99073 3.72603 2.06556 3.42339 2.3667L2.96399 2.82382L2.50589 3.25977C2.18999 3.5604 2.10619 4.03096 2.25278 4.44166C2.4806 5.0799 2.73516 6.0443 2.53173 6.77113C2.15652 7.4328 1.28322 7.93611 0.670398 8.22421C0.283767 8.40597 0.0117188 8.78528 0.0117188 9.21251V9.85507H6.79918C6.81875 9.01673 7.16534 8.21932 7.76482 7.63332C8.36431 7.04733 9.16912 6.71925 10.0072 6.71925C10.8453 6.71925 11.6501 7.04733 12.2496 7.63332C12.8491 8.21932 13.1956 9.01673 13.2152 9.85507H19.9998V9.19836C19.9998 8.77114 19.7274 8.39167 19.3408 8.20992C18.7101 7.91344 17.8038 7.38921 17.4478 6.69922Z" fill="white"/>
</svg>
