<svg width="19" height="20" viewBox="0 0 19 20" fill="none" xmlns="http://www.w3.org/2000/svg">
<path fill-rule="evenodd" clip-rule="evenodd" d="M9.73332 4.64403C11.377 6.11999 11.5131 8.649 10.0371 10.2927C8.56115 11.9365 6.03214 12.0725 4.38841 10.5965C2.74468 9.12055 2.60867 6.59155 4.08463 4.94782C5.56058 3.30409 8.08959 3.16808 9.73332 4.64403ZM11.0969 10.5723C12.5983 8.52468 12.3305 5.63216 10.4014 3.89997C8.34677 2.05503 5.18551 2.22504 3.34057 4.2797C1.49562 6.33437 1.66563 9.49562 3.7203 11.3406C5.64941 13.0728 8.55402 13.0288 10.4288 11.3163L15.2835 15.6755L15.9516 14.9315L11.0969 10.5723Z" fill="white"/>
</svg>
